<svg width="48" height="48" viewBox="0 0 48 48" fill="none" xmlns="http://www.w3.org/2000/svg">
<path d="M38.28 25.872C38.352 25.272 38.4 24.648 38.4 24C38.4 23.352 38.352 22.728 38.256 22.128L42.312 18.96C42.672 18.672 42.768 18.144 42.552 17.736L38.712 11.088C38.472 10.656 37.968 10.512 37.536 10.656L32.76 12.576C31.752 11.808 30.696 11.184 29.52 10.704L28.8 5.61599C28.728 5.13599 28.32 4.79999 27.84 4.79999H20.16C19.68 4.79999 19.296 5.13599 19.224 5.61599L18.504 10.704C17.328 11.184 16.248 11.832 15.264 12.576L10.488 10.656C10.056 10.488 9.55197 10.656 9.31197 11.088L5.47197 17.736C5.23197 18.168 5.32797 18.672 5.71197 18.96L9.76797 22.128C9.67197 22.728 9.59997 23.376 9.59997 24C9.59997 24.624 9.64797 25.272 9.74397 25.872L5.68797 29.04C5.32797 29.328 5.23197 29.856 5.44797 30.264L9.28797 36.912C9.52797 37.344 10.032 37.488 10.464 37.344L15.24 35.424C16.248 36.192 17.304 36.816 18.48 37.296L19.2 42.384C19.296 42.864 19.68 43.2 20.16 43.2H27.84C28.32 43.2 28.728 42.864 28.776 42.384L29.496 37.296C30.672 36.816 31.752 36.168 32.736 35.424L37.512 37.344C37.944 37.512 38.448 37.344 38.688 36.912L42.528 30.264C42.768 29.832 42.672 29.328 42.288 29.04L38.28 25.872V25.872ZM24 31.2C20.04 31.2 16.8 27.96 16.8 24C16.8 20.04 20.04 16.8 24 16.8C27.96 16.8 31.2 20.04 31.2 24C31.2 27.96 27.96 31.2 24 31.2Z" fill="white"/>
</svg>
